<svg xmlns="http://www.w3.org/2000/svg" width="341" height="130" viewBox="0 0 341 130" fill="none">
<path d="M23.3147 13.448L30.4339 13.1005L30.3531 7.09646L32.1551 7.22575L32.2521 18.3288L30.5147 18.4662L30.4662 14.6036L23.3308 14.9187L23.3874 18.547L21.6985 18.6117L21.545 7.05605L23.25 6.97525L23.3147 13.448ZM39.5928 17.8682C39.8783 17.8682 40.1611 17.8251 40.4412 17.7389C40.7214 17.6474 40.98 17.5181 41.217 17.3511C41.454 17.1787 41.6588 16.9659 41.8311 16.7127C42.0089 16.4595 42.1382 16.1659 42.219 15.8319L43.7786 16.147C43.6278 16.6373 43.415 17.0817 43.1402 17.4804C42.8655 17.879 42.545 18.2211 42.1786 18.5066C41.8123 18.7921 41.4082 19.013 40.9665 19.1693C40.5301 19.3255 40.0722 19.4036 39.5928 19.4036C38.8816 19.4036 38.2513 19.2959 37.7018 19.0804C37.1523 18.8649 36.689 18.5605 36.3119 18.1672C35.9348 17.774 35.6466 17.2999 35.4473 16.745C35.2533 16.1901 35.1564 15.5706 35.1564 14.8864C35.1564 14.213 35.2695 13.5854 35.4958 13.0036C35.7274 12.4164 36.0426 11.9073 36.4412 11.4763C36.8399 11.0453 37.3086 10.7059 37.8473 10.4581C38.386 10.2103 38.9678 10.0864 39.5928 10.0864C40.153 10.0864 40.681 10.1968 41.1766 10.4177C41.6722 10.6332 42.1113 10.9349 42.4938 11.3227C42.8763 11.7052 43.1914 12.1578 43.4392 12.6803C43.687 13.2029 43.8433 13.7685 43.9079 14.3773L36.9099 15.4197C36.9476 15.8022 37.0419 16.147 37.1927 16.4541C37.3436 16.7558 37.5348 17.0117 37.7665 17.2218C38.0035 17.4319 38.2756 17.5935 38.5826 17.7066C38.8951 17.8144 39.2318 17.8682 39.5928 17.8682ZM41.8231 13.3349L41.7746 13.1813C41.5699 12.648 41.287 12.2305 40.9261 11.9288C40.5705 11.6271 40.1261 11.4763 39.5928 11.4763C39.3665 11.4763 39.1187 11.5167 38.8493 11.5975C38.58 11.6729 38.3187 11.8049 38.0655 11.9935C37.8123 12.182 37.5833 12.4352 37.3786 12.7531C37.1793 13.0655 37.0392 13.4561 36.9584 13.9248L41.8231 13.3349ZM53.7375 10.4338C53.4519 11.2743 53.1907 12.0419 52.9536 12.7369C52.722 13.4318 52.5119 14.0595 52.3233 14.6197C52.1348 15.18 51.9651 15.6783 51.8142 16.1147C51.6634 16.5511 51.5314 16.9335 51.4183 17.2622C51.1543 18.0325 50.9469 18.6251 50.796 19.04C50.6883 19.3578 50.5617 19.6945 50.4162 20.0501C50.2762 20.411 50.1011 20.7693 49.891 21.1248C49.6863 21.4804 49.4438 21.8225 49.1637 22.1511C48.889 22.4851 48.5657 22.7814 48.194 23.04C47.8277 23.304 47.4075 23.5194 46.9334 23.6864C46.4593 23.8535 45.926 23.9504 45.3334 23.9774L45.0182 22.4016C45.3522 22.4447 45.6647 22.4339 45.9556 22.3693C46.2519 22.31 46.524 22.213 46.7718 22.0784C47.025 21.9491 47.2566 21.7901 47.4667 21.6016C47.6822 21.413 47.8762 21.2137 48.0486 21.0036C48.2263 20.7935 48.3826 20.578 48.5172 20.3571C48.6519 20.1416 48.7704 19.9396 48.8728 19.7511L45.4627 10.7005L47.3132 10.45L49.697 17.5692C49.8263 17.1706 49.9772 16.7019 50.1496 16.1632C50.3274 15.6191 50.5132 15.0345 50.7072 14.4096C50.9065 13.7847 51.1112 13.1329 51.3213 12.4541C51.5314 11.7699 51.7361 11.0911 51.9354 10.4177L53.7375 10.4338ZM68.4026 10.4338C68.1171 11.2743 67.8558 12.0419 67.6188 12.7369C67.3871 13.4318 67.177 14.0595 66.9885 14.6197C66.7999 15.18 66.6302 15.6783 66.4794 16.1147C66.3285 16.5511 66.1965 16.9335 66.0834 17.2622C65.8194 18.0325 65.612 18.6251 65.4612 19.04C65.3534 19.3578 65.2268 19.6945 65.0814 20.0501C64.9413 20.411 64.7662 20.7693 64.5561 21.1248C64.3514 21.4804 64.109 21.8225 63.8288 22.1511C63.5541 22.4851 63.2309 22.7814 62.8591 23.04C62.4928 23.304 62.0726 23.5194 61.5985 23.6864C61.1244 23.8535 60.5911 23.9504 59.9985 23.9774L59.6834 22.4016C60.0174 22.4447 60.3298 22.4339 60.6207 22.3693C60.917 22.31 61.1891 22.213 61.4369 22.0784C61.6901 21.9491 61.9218 21.7901 62.1319 21.6016C62.3473 21.413 62.5413 21.2137 62.7137 21.0036C62.8915 20.7935 63.0477 20.578 63.1824 20.3571C63.3171 20.1416 63.4356 19.9396 63.5379 19.7511L60.1278 10.7005L61.9783 10.45L64.3622 17.5692C64.4915 17.1706 64.6423 16.7019 64.8147 16.1632C64.9925 15.6191 65.1783 15.0345 65.3723 14.4096C65.5716 13.7847 65.7763 13.1329 65.9864 12.4541C66.1965 11.7699 66.4012 11.0911 66.6006 10.4177L68.4026 10.4338ZM78.8463 14.6925C78.8463 15.3713 78.7332 15.9989 78.5069 16.5753C78.2806 17.1517 77.9709 17.6527 77.5776 18.0783C77.1843 18.5039 76.7237 18.8352 76.1958 19.0723C75.6678 19.3147 75.1049 19.4359 74.5069 19.4359C73.9089 19.4359 73.3486 19.3228 72.8261 19.0965C72.3035 18.8703 71.8456 18.5497 71.4523 18.1349C71.0644 17.7147 70.7574 17.2137 70.5311 16.6319C70.3048 16.05 70.1917 15.4036 70.1917 14.6925C70.1917 13.976 70.3048 13.3268 70.5311 12.745C70.7574 12.1578 71.0644 11.6568 71.4523 11.2419C71.8456 10.8271 72.3035 10.5066 72.8261 10.2803C73.3486 10.054 73.9089 9.94092 74.5069 9.94092C75.1049 9.94092 75.6678 10.0621 76.1958 10.3046C76.7237 10.5416 77.1843 10.8729 77.5776 11.2985C77.9709 11.7187 78.2806 12.2197 78.5069 12.8015C78.7332 13.378 78.8463 14.0083 78.8463 14.6925ZM77.1412 14.6763C77.1412 14.2884 77.0928 13.8978 76.9958 13.5046C76.8988 13.1059 76.7453 12.7504 76.5352 12.4379C76.3251 12.1201 76.053 11.8615 75.719 11.6621C75.385 11.4628 74.981 11.3631 74.5069 11.3631C74.049 11.3631 73.6557 11.4628 73.3271 11.6621C72.9985 11.8615 72.7291 12.1201 72.519 12.4379C72.3089 12.7504 72.1554 13.1059 72.0584 13.5046C71.9614 13.8978 71.9129 14.2884 71.9129 14.6763C71.9129 15.0642 71.9641 15.4548 72.0665 15.848C72.1742 16.2413 72.3358 16.5968 72.5513 16.9147C72.7668 17.2272 73.0362 17.483 73.3594 17.6824C73.688 17.8817 74.0705 17.9814 74.5069 17.9814C74.9648 17.9814 75.3581 17.8817 75.6867 17.6824C76.0207 17.483 76.2954 17.2272 76.5109 16.9147C76.7264 16.5968 76.8853 16.2413 76.9877 15.848C77.0901 15.4548 77.1412 15.0642 77.1412 14.6763ZM87.69 19.1935L87.6577 16.8743C87.4799 17.1921 87.2779 17.4938 87.0516 17.7793C86.8253 18.0595 86.5802 18.3073 86.3162 18.5228C86.0523 18.7329 85.7694 18.8999 85.4677 19.0238C85.1714 19.1477 84.859 19.2043 84.5304 19.1935C84.0455 19.1773 83.628 19.0857 83.2778 18.9187C82.933 18.7517 82.6421 18.5309 82.4051 18.2561C82.1681 17.976 81.9768 17.6554 81.8314 17.2945C81.6913 16.9282 81.5835 16.543 81.5081 16.1389C81.4327 15.7349 81.3815 15.3228 81.3546 14.9026C81.333 14.477 81.3223 14.0648 81.3223 13.6662C81.3223 13.1059 81.3465 12.5403 81.395 11.9692C81.4435 11.3928 81.5135 10.8056 81.6051 10.2076L83.2617 10.2561C83.1755 10.9241 83.1162 11.5248 83.0839 12.0581C83.057 12.5914 83.0435 13.0601 83.0435 13.4642C83.0435 13.6473 83.0462 13.879 83.0516 14.1591C83.057 14.4393 83.0758 14.7383 83.1081 15.0561C83.1458 15.3686 83.2024 15.6783 83.2778 15.9854C83.3533 16.2925 83.4583 16.5672 83.593 16.8096C83.7331 17.0467 83.9081 17.2298 84.1182 17.3591C84.3283 17.4884 84.5869 17.5315 84.894 17.4884C85.3088 17.4292 85.7398 17.1437 86.1869 16.6319C86.6395 16.1201 87.1135 15.3335 87.6092 14.2723C87.593 13.4157 87.5768 12.7315 87.5607 12.2197C87.5499 11.7079 87.5418 11.3174 87.5364 11.048C87.5257 10.7301 87.5176 10.5093 87.5122 10.3854L89.2496 10.1914C89.2819 11.118 89.3088 11.9557 89.3304 12.7046C89.3573 13.448 89.3816 14.1187 89.4031 14.7167C89.4247 15.3093 89.4408 15.8319 89.4516 16.2844C89.4678 16.7315 89.4812 17.1194 89.492 17.448C89.5136 18.2184 89.527 18.7895 89.5324 19.1612L87.69 19.1935Z" fill="#8E8D94"/>
<path d="M0.75 47.4877C0.75 36.6339 9.54878 27.8351 20.4026 27.8351V27.8351V56.2797H0.75V47.4877Z" fill="#454545" stroke="#454545" stroke-width="0.805851"/>
<rect x="0.75" y="56.2797" width="19.6526" height="44.1214" fill="#454545" stroke="#454545" stroke-width="0.805851"/>
<path d="M0.75 109.193C0.75 120.047 9.54878 128.846 20.4026 128.846V128.846V100.401H0.75V109.193Z" fill="#454545" stroke="#454545" stroke-width="0.805851"/>
<rect x="20.4026" y="27.8351" width="290.877" height="101.011" fill="#454545"/>
<path d="M25.8633 69.872H23.1731L22.7047 51.2683L25.6893 51.3754L25.8633 69.872ZM40.1375 56.3007L40.1107 58.2547C40.6193 57.7551 41.1502 57.3714 41.7034 57.1037C42.2566 56.8271 42.7652 56.6174 43.2291 56.4747C43.7734 56.3141 44.3043 56.2114 44.8218 56.1668C45.4286 56.1668 46.0308 56.2561 46.6287 56.4345C47.2265 56.604 47.7931 56.8494 48.3284 57.1706C48.8638 57.4829 49.359 57.8621 49.814 58.3083C50.2691 58.7544 50.6572 59.2541 50.9784 59.8073C51.2996 60.3515 51.545 60.9404 51.7145 61.5739C51.893 62.2074 51.9688 62.8722 51.9421 63.5681C51.9153 64.3355 51.7993 65.0582 51.5941 65.7363C51.3889 66.4144 51.1167 67.039 50.7777 67.6101C50.4475 68.1722 50.0594 68.6808 49.6133 69.1358C49.1671 69.5909 48.6898 69.9746 48.1812 70.2869C47.6815 70.5991 47.1596 70.8356 46.6153 70.9962C46.0799 71.1657 45.5446 71.2505 45.0092 71.2505C44.4649 71.2327 43.9117 71.1524 43.3496 71.0096C42.8589 70.8847 42.319 70.6884 41.7301 70.4207C41.1413 70.1619 40.5613 69.7872 39.9902 69.2964L39.9099 78.3707L37.4205 78.4243L37.193 56.4211L40.1375 56.3007ZM48.9307 63.8224C48.9664 63.1711 48.8816 62.5465 48.6764 61.9487C48.4801 61.3419 48.1812 60.811 47.7797 60.356C47.3871 59.9009 46.9142 59.5396 46.361 59.2719C45.8078 59.0042 45.201 58.8748 44.5408 58.8838C43.9876 58.8927 43.4656 58.9953 42.9748 59.1916C42.493 59.379 42.0558 59.6333 41.6632 59.9545C41.2796 60.2668 40.9494 60.6326 40.6728 61.052C40.4051 61.4713 40.2044 61.9085 40.0705 62.3636L40.0438 64.9065C40.1776 65.4954 40.3873 66.0129 40.6728 66.4591C40.9583 66.9052 41.2929 67.2799 41.6766 67.5833C42.0692 67.8778 42.493 68.1053 42.9481 68.2659C43.4031 68.4176 43.8626 68.4979 44.3266 68.5068C44.9512 68.5246 45.5356 68.4131 46.0799 68.1722C46.6331 67.9313 47.1149 67.5967 47.5254 67.1684C47.9358 66.7401 48.2615 66.2405 48.5024 65.6694C48.7522 65.0984 48.895 64.4827 48.9307 63.8224ZM64.8677 62.8053C64.8588 62.368 64.8186 61.9888 64.7473 61.6676C64.6848 61.3464 64.6 61.0698 64.493 60.8378C64.3948 60.6058 64.2788 60.414 64.145 60.2623C64.0201 60.1106 63.8907 59.9857 63.7568 59.8876C63.4446 59.6645 63.0921 59.5574 62.6995 59.5663C62.4497 59.602 62.182 59.7091 61.8965 59.8876C61.6199 60.0571 61.3344 60.2802 61.0399 60.5568C60.7455 60.8244 60.4466 61.1323 60.1432 61.4802C59.8487 61.8193 59.5632 62.1717 59.2866 62.5376C59.01 62.8945 58.7468 63.2514 58.497 63.6083C58.2471 63.9652 58.0241 64.2909 57.8278 64.5853C57.8367 65.2545 57.8501 65.9148 57.8679 66.5661C57.8858 67.2086 57.8992 67.8108 57.9081 68.373C57.9259 68.9262 57.9438 69.4303 57.9616 69.8853C57.9884 70.3315 58.0152 70.6928 58.0419 70.9694L55.1644 71.3308C55.1108 69.7961 55.0618 68.4086 55.0172 67.1684C54.9725 65.9192 54.9324 64.8039 54.8967 63.8224C54.861 62.8409 54.8298 61.9754 54.803 61.226C54.7852 60.4765 54.7673 59.8296 54.7495 59.2853C54.7138 58.0094 54.687 57.0636 54.6692 56.4479L57.7207 56.3944C57.7296 56.9386 57.7341 57.4963 57.7341 58.0673C57.743 58.6295 57.7519 59.147 57.7609 59.6199C57.7698 60.1731 57.7742 60.7129 57.7742 61.2393C58.033 60.8289 58.3453 60.3783 58.7111 59.8876C59.0859 59.3968 59.5052 58.9328 59.9692 58.4956C60.4421 58.0584 60.9552 57.6792 61.5084 57.358C62.0705 57.0279 62.6683 56.8226 63.3018 56.7423C64.0156 56.7067 64.667 56.8583 65.2558 57.1974C65.5057 57.3402 65.7511 57.532 65.992 57.7729C66.2418 58.0049 66.4693 58.3083 66.6745 58.683C66.8887 59.0488 67.0671 59.4905 67.2099 60.008C67.3527 60.5166 67.4508 61.1189 67.5043 61.8148L64.8677 62.8053ZM75.9999 69.1091C76.4728 69.1091 76.9413 69.0377 77.4052 68.8949C77.8692 68.7432 78.2975 68.5291 78.6901 68.2525C79.0827 67.967 79.4217 67.6145 79.7073 67.1952C80.0017 66.7758 80.2158 66.2895 80.3497 65.7363L82.9328 66.2583C82.6829 67.0703 82.3305 67.8064 81.8755 68.4666C81.4204 69.1269 80.8895 69.6935 80.2828 70.1664C79.676 70.6393 79.0068 71.0051 78.2752 71.2639C77.5524 71.5226 76.794 71.652 75.9999 71.652C74.8221 71.652 73.7782 71.4736 72.8681 71.1167C71.958 70.7598 71.1906 70.2556 70.566 69.6043C69.9415 68.9529 69.4641 68.1677 69.134 67.2487C68.8128 66.3297 68.6521 65.3036 68.6521 64.1704C68.6521 63.0551 68.8395 62.0156 69.2143 61.052C69.5979 60.0794 70.1199 59.2362 70.7802 58.5224C71.4405 57.8086 72.2167 57.2465 73.109 56.836C74.0013 56.4256 74.9649 56.2204 75.9999 56.2204C76.9279 56.2204 77.8023 56.4033 78.6232 56.7691C79.444 57.126 80.1712 57.6257 80.8047 58.2681C81.4382 58.9016 81.9602 59.6511 82.3707 60.5166C82.7811 61.3821 83.0399 62.319 83.1469 63.3272L71.5565 65.0537C71.6189 65.6873 71.7751 66.2583 72.0249 66.7669C72.2747 67.2666 72.5915 67.6904 72.9752 68.0384C73.3677 68.3863 73.8183 68.654 74.3269 68.8414C74.8444 69.0198 75.4021 69.1091 75.9999 69.1091ZM79.6939 61.6007L79.6136 61.3464C79.2745 60.4631 78.8061 59.7716 78.2083 59.2719C77.6194 58.7722 76.8833 58.5224 75.9999 58.5224C75.6252 58.5224 75.2147 58.5893 74.7686 58.7232C74.3225 58.8481 73.8897 59.0667 73.4704 59.379C73.051 59.6913 72.6718 60.1106 72.3327 60.6371C72.0026 61.1546 71.7706 61.8015 71.6368 62.5777L79.6939 61.6007ZM87.5069 56.7691C87.605 55.8322 87.7924 54.9311 88.069 54.0656C88.3545 53.1911 88.7516 52.4193 89.2602 51.7501C89.7777 51.0809 90.4246 50.5456 91.2008 50.1441C91.9771 49.7426 92.9095 49.5418 93.9981 49.5418C94.587 49.5418 95.2071 49.6444 95.8584 49.8496C96.5187 50.0459 97.17 50.4251 97.8125 50.9873L96.4875 53.2358C96.0056 52.8967 95.5372 52.6602 95.0822 52.5264C94.6271 52.3836 94.2211 52.2944 93.8642 52.2587C93.4449 52.223 93.0523 52.2364 92.6864 52.2989C92.3295 52.3881 92.0128 52.5309 91.7362 52.7272C91.4596 52.9145 91.2187 53.1822 91.0135 53.5302C90.8082 53.8782 90.6387 54.3199 90.5049 54.8552C90.371 55.3816 90.264 56.0285 90.1836 56.7959L95.8584 56.8226L95.564 59.4593L90.023 59.379V60.5568C90.0141 61.7345 90.0097 62.9391 90.0097 64.1704C90.0097 64.6968 90.0052 65.259 89.9963 65.8568C89.9963 66.4457 89.9963 67.048 89.9963 67.6636C89.9963 68.2793 89.9918 68.9039 89.9829 69.5374C89.9829 70.1619 89.9784 70.7687 89.9695 71.3576L87.199 71.4111C87.2258 69.466 87.2481 67.7975 87.266 66.4055C87.2838 65.0136 87.3016 63.8581 87.3195 62.9391C87.3373 61.8684 87.3507 60.9806 87.3596 60.2757V59.3522L84.3215 59.2987V56.7423L87.5069 56.7691ZM103.993 69.1091C104.466 69.1091 104.934 69.0377 105.398 68.8949C105.862 68.7432 106.29 68.5291 106.683 68.2525C107.075 67.967 107.414 67.6145 107.7 67.1952C107.994 66.7758 108.209 66.2895 108.342 65.7363L110.925 66.2583C110.676 67.0703 110.323 67.8064 109.868 68.4666C109.413 69.1269 108.882 69.6935 108.275 70.1664C107.669 70.6393 107 71.0051 106.268 71.2639C105.545 71.5226 104.787 71.652 103.993 71.652C102.815 71.652 101.771 71.4736 100.861 71.1167C99.9507 70.7598 99.1833 70.2556 98.5588 69.6043C97.9342 68.9529 97.4568 68.1677 97.1267 67.2487C96.8055 66.3297 96.6449 65.3036 96.6449 64.1704C96.6449 63.0551 96.8322 62.0156 97.207 61.052C97.5907 60.0794 98.1126 59.2362 98.7729 58.5224C99.4332 57.8086 100.209 57.2465 101.102 56.836C101.994 56.4256 102.958 56.2204 103.993 56.2204C104.921 56.2204 105.795 56.4033 106.616 56.7691C107.437 57.126 108.164 57.6257 108.797 58.2681C109.431 58.9016 109.953 59.6511 110.363 60.5166C110.774 61.3821 111.033 62.319 111.14 63.3272L99.5492 65.0537C99.6116 65.6873 99.7678 66.2583 100.018 66.7669C100.267 67.2666 100.584 67.6904 100.968 68.0384C101.36 68.3863 101.811 68.654 102.32 68.8414C102.837 69.0198 103.395 69.1091 103.993 69.1091ZM107.687 61.6007L107.606 61.3464C107.267 60.4631 106.799 59.7716 106.201 59.2719C105.612 58.7722 104.876 58.5224 103.993 58.5224C103.618 58.5224 103.207 58.5893 102.761 58.7232C102.315 58.8481 101.882 59.0667 101.463 59.379C101.044 59.6913 100.664 60.1106 100.325 60.6371C99.9953 61.1546 99.7633 61.8015 99.6295 62.5777L107.687 61.6007ZM123.771 62.8053C123.762 62.368 123.722 61.9888 123.65 61.6676C123.588 61.3464 123.503 61.0698 123.396 60.8378C123.298 60.6058 123.182 60.414 123.048 60.2623C122.923 60.1106 122.794 59.9857 122.66 59.8876C122.348 59.6645 121.995 59.5574 121.603 59.5663C121.353 59.602 121.085 59.7091 120.8 59.8876C120.523 60.0571 120.237 60.2802 119.943 60.5568C119.649 60.8244 119.35 61.1323 119.046 61.4802C118.752 61.8193 118.466 62.1717 118.19 62.5376C117.913 62.8945 117.65 63.2514 117.4 63.6083C117.15 63.9652 116.927 64.2909 116.731 64.5853C116.74 65.2545 116.753 65.9148 116.771 66.5661C116.789 67.2086 116.802 67.8108 116.811 68.373C116.829 68.9262 116.847 69.4303 116.865 69.8853C116.892 70.3315 116.918 70.6928 116.945 70.9694L114.068 71.3308C114.014 69.7961 113.965 68.4086 113.92 67.1684C113.876 65.9192 113.836 64.8039 113.8 63.8224C113.764 62.8409 113.733 61.9754 113.706 61.226C113.688 60.4765 113.67 59.8296 113.653 59.2853C113.617 58.0094 113.59 57.0636 113.572 56.4479L116.624 56.3944C116.633 56.9386 116.637 57.4963 116.637 58.0673C116.646 58.6295 116.655 59.147 116.664 59.6199C116.673 60.1731 116.677 60.7129 116.677 61.2393C116.936 60.8289 117.248 60.3783 117.614 59.8876C117.989 59.3968 118.408 58.9328 118.872 58.4956C119.345 58.0584 119.858 57.6792 120.411 57.358C120.974 57.0279 121.571 56.8226 122.205 56.7423C122.919 56.7067 123.57 56.8583 124.159 57.1974C124.409 57.3402 124.654 57.532 124.895 57.7729C125.145 58.0049 125.372 58.3083 125.578 58.683C125.792 59.0488 125.97 59.4905 126.113 60.008C126.256 60.5166 126.354 61.1189 126.407 61.8148L123.771 62.8053ZM140.722 51.0676L140.628 57.0502L145.821 56.8762L145.62 59.379L140.601 59.5128L140.494 71.1836L137.67 71.2505L137.898 59.5931L133.267 59.7002L133.321 57.2375L137.951 57.1037L138.058 51.2416L140.722 51.0676ZM154.062 69.1091C154.535 69.1091 155.004 69.0377 155.468 68.8949C155.932 68.7432 156.36 68.5291 156.753 68.2525C157.145 67.967 157.484 67.6145 157.77 67.1952C158.064 66.7758 158.278 66.2895 158.412 65.7363L160.995 66.2583C160.745 67.0703 160.393 67.8064 159.938 68.4666C159.483 69.1269 158.952 69.6935 158.345 70.1664C157.738 70.6393 157.069 71.0051 156.338 71.2639C155.615 71.5226 154.856 71.652 154.062 71.652C152.885 71.652 151.841 71.4736 150.931 71.1167C150.02 70.7598 149.253 70.2556 148.629 69.6043C148.004 68.9529 147.527 68.1677 147.196 67.2487C146.875 66.3297 146.715 65.3036 146.715 64.1704C146.715 63.0551 146.902 62.0156 147.277 61.052C147.66 60.0794 148.182 59.2362 148.843 58.5224C149.503 57.8086 150.279 57.2465 151.171 56.836C152.064 56.4256 153.027 56.2204 154.062 56.2204C154.99 56.2204 155.865 56.4033 156.686 56.7691C157.506 57.126 158.234 57.6257 158.867 58.2681C159.501 58.9016 160.023 59.6511 160.433 60.5166C160.844 61.3821 161.102 62.319 161.209 63.3272L149.619 65.0537C149.681 65.6873 149.838 66.2583 150.087 66.7669C150.337 67.2666 150.654 67.6904 151.038 68.0384C151.43 68.3863 151.881 68.654 152.389 68.8414C152.907 69.0198 153.465 69.1091 154.062 69.1091ZM157.756 61.6007L157.676 61.3464C157.337 60.4631 156.869 59.7716 156.271 59.2719C155.682 58.7722 154.946 58.5224 154.062 58.5224C153.688 58.5224 153.277 58.5893 152.831 58.7232C152.385 58.8481 151.952 59.0667 151.533 59.379C151.113 59.6913 150.734 60.1106 150.395 60.6371C150.065 61.1546 149.833 61.8015 149.699 62.5777L157.756 61.6007ZM169.156 61.681L173.212 56.5282L175.741 57.5186L170.856 63.7555L176.009 70.0727L173.546 71.0765L169.237 65.8434L165.208 71.023L162.384 70.2601L167.51 63.7287L162.223 57.2643L165.021 56.6085L169.156 61.681ZM184.156 51.0676L184.063 57.0502L189.256 56.8762L189.055 59.379L184.036 59.5128L183.929 71.1836L181.105 71.2505L181.332 59.5931L176.702 59.7002L176.755 57.2375L181.386 57.1037L181.493 51.2416L184.156 51.0676ZM194.834 52.4996C194.834 52.7584 194.78 53.0038 194.673 53.2358C194.575 53.4677 194.436 53.6685 194.258 53.838C194.088 54.0076 193.888 54.1414 193.656 54.2395C193.424 54.3377 193.174 54.3868 192.906 54.3868C192.647 54.3868 192.402 54.3377 192.17 54.2395C191.947 54.1414 191.746 54.0076 191.568 53.838C191.398 53.6685 191.264 53.4677 191.166 53.2358C191.068 53.0038 191.019 52.7584 191.019 52.4996C191.019 52.232 191.068 51.9821 191.166 51.7501C191.264 51.5182 191.398 51.3174 191.568 51.1479C191.746 50.9694 191.947 50.8311 192.17 50.733C192.402 50.6259 192.647 50.5724 192.906 50.5724C193.174 50.5724 193.424 50.6259 193.656 50.733C193.888 50.8311 194.088 50.9694 194.258 51.1479C194.436 51.3174 194.575 51.5182 194.673 51.7501C194.78 51.9821 194.834 52.232 194.834 52.4996ZM194.204 57.2108C194.178 58.4867 194.151 59.66 194.124 60.7307C194.106 61.7925 194.088 62.7606 194.071 63.6351C194.053 64.5095 194.035 65.2947 194.017 65.9906C194.008 66.6777 193.999 67.2799 193.99 67.7975C193.964 69.0288 193.95 69.9969 193.95 70.7018H191.206C191.224 69.7381 191.247 68.5916 191.273 67.2621C191.291 66.12 191.314 64.7236 191.34 63.0729C191.376 61.4222 191.407 59.5039 191.434 57.3178L194.204 57.2108ZM198.31 71.3308C198.257 69.7961 198.207 68.4086 198.163 67.1684C198.118 65.9192 198.078 64.8039 198.042 63.8224C198.007 62.8409 197.976 61.9754 197.949 61.226C197.931 60.4765 197.913 59.8296 197.895 59.2853C197.86 58.0094 197.833 57.0636 197.815 56.4479L200.866 56.3944L200.92 60.2489C201.214 59.7403 201.549 59.263 201.924 58.8168C202.299 58.3618 202.704 57.9603 203.142 57.6123C203.579 57.2643 204.043 56.9833 204.534 56.7691C205.033 56.555 205.555 56.43 206.1 56.3944C206.778 56.3497 207.367 56.4077 207.866 56.5683C208.375 56.729 208.808 56.952 209.164 57.2375C209.521 57.5231 209.816 57.8621 210.048 58.2547C210.28 58.6384 210.463 59.0399 210.597 59.4593C210.73 59.8697 210.824 60.2802 210.878 60.6906C210.94 61.101 210.98 61.4758 210.998 61.8148C211.052 63.3495 211.065 64.8931 211.038 66.4457C211.011 67.9982 210.98 69.6087 210.945 71.2773L208.201 71.1836C208.272 69.747 208.335 68.3105 208.388 66.874C208.451 65.4374 208.446 63.9875 208.375 62.5242C208.375 62.3636 208.361 62.1584 208.335 61.9085C208.317 61.6498 208.268 61.3776 208.187 61.0921C208.116 60.8066 208.013 60.5255 207.88 60.2489C207.746 59.9634 207.572 59.718 207.358 59.5128C207.143 59.2987 206.88 59.1381 206.568 59.031C206.265 58.9239 205.908 58.9016 205.497 58.9641C204.792 59.0711 204.074 59.5887 203.342 60.5166C202.62 61.4356 201.839 62.7829 201 64.5585C201.036 65.9951 201.063 67.1416 201.081 67.9982C201.107 68.8459 201.13 69.4883 201.147 69.9255C201.165 70.443 201.179 70.791 201.188 70.9694L198.31 71.3308ZM228.903 55.511L228.822 70.8891C228.813 71.4691 228.737 72.0446 228.595 72.6157C228.452 73.1956 228.238 73.7533 227.952 74.2886C227.676 74.8329 227.328 75.3415 226.908 75.8144C226.498 76.2962 226.021 76.7201 225.476 77.0859C224.941 77.4606 224.339 77.764 223.669 77.996C223 78.2369 222.269 78.3886 221.474 78.451C220.395 78.4867 219.378 78.3752 218.423 78.1164C218.012 78.0094 217.593 77.8622 217.165 77.6748C216.745 77.4874 216.339 77.2465 215.947 76.952C215.554 76.6665 215.193 76.3185 214.863 75.9081C214.533 75.5066 214.261 75.0292 214.046 74.476L216.629 73.3518C216.799 73.7354 217.004 74.0656 217.245 74.3422C217.486 74.6188 217.745 74.8508 218.021 75.0381C218.298 75.2255 218.579 75.3772 218.865 75.4932C219.159 75.6092 219.445 75.694 219.721 75.7475C220.373 75.8903 221.06 75.917 221.782 75.8278C222.407 75.7029 222.947 75.511 223.402 75.2523C223.866 74.9935 224.258 74.7035 224.58 74.3823C224.901 74.07 225.159 73.7354 225.356 73.3785C225.561 73.0306 225.722 72.696 225.838 72.3747C225.954 72.0535 226.029 71.7591 226.065 71.4914C226.11 71.2327 226.132 71.0319 226.132 70.8891V69.1358C225.597 69.6444 225.039 70.037 224.459 70.3136C223.888 70.5813 223.357 70.7776 222.866 70.9025C222.295 71.0542 221.733 71.139 221.18 71.1568C220.145 71.1568 219.181 70.9739 218.289 70.6081C217.397 70.2512 216.621 69.7381 215.96 69.0689C215.3 68.3908 214.778 67.5699 214.394 66.6063C214.02 65.6426 213.832 64.5585 213.832 63.354C213.832 62.1405 214.042 61.0609 214.461 60.1151C214.881 59.1604 215.429 58.3573 216.108 57.706C216.795 57.0546 217.566 56.5594 218.423 56.2204C219.288 55.8724 220.158 55.6984 221.033 55.6984C221.64 55.7698 222.251 55.9036 222.866 56.0999C223.393 56.2694 223.959 56.5104 224.566 56.8226C225.173 57.1349 225.735 57.5588 226.253 58.0941L226.279 55.4307L228.903 55.511ZM221.18 68.5871C221.769 68.5871 222.34 68.4845 222.893 68.2793C223.446 68.0741 223.946 67.7885 224.392 67.4227C224.847 67.048 225.231 66.6063 225.543 66.0977C225.855 65.5802 226.07 65.0136 226.186 64.3979V62.6446C226.087 62.0111 225.878 61.4356 225.557 60.9181C225.235 60.3917 224.843 59.9411 224.379 59.5663C223.915 59.1916 223.397 58.9016 222.826 58.6964C222.264 58.4912 221.689 58.3886 221.1 58.3886C220.457 58.3886 219.864 58.5224 219.32 58.7901C218.775 59.0488 218.307 59.4102 217.914 59.8742C217.531 60.3382 217.227 60.8869 217.004 61.5204C216.79 62.1539 216.683 62.8365 216.683 63.5681C216.683 64.2998 216.795 64.9734 217.018 65.5891C217.241 66.2048 217.549 66.7357 217.941 67.1818C218.343 67.619 218.816 67.9625 219.36 68.2124C219.913 68.4622 220.52 68.5871 221.18 68.5871ZM253.188 63.8492C253.188 64.9734 253.001 66.0129 252.626 66.9676C252.251 67.9224 251.738 68.7522 251.087 69.4571C250.435 70.1619 249.672 70.7107 248.798 71.1033C247.924 71.5048 246.991 71.7056 246.001 71.7056C245.01 71.7056 244.082 71.5182 243.217 71.1434C242.351 70.7687 241.593 70.2378 240.942 69.5507C240.299 68.8548 239.791 68.025 239.416 67.0613C239.041 66.0977 238.854 65.027 238.854 63.8492C238.854 62.6625 239.041 61.5873 239.416 60.6237C239.791 59.6511 240.299 58.8213 240.942 58.1343C241.593 57.4472 242.351 56.9163 243.217 56.5416C244.082 56.1668 245.01 55.9795 246.001 55.9795C246.991 55.9795 247.924 56.1802 248.798 56.5817C249.672 56.9743 250.435 57.5231 251.087 58.228C251.738 58.9239 252.251 59.7537 252.626 60.7174C253.001 61.6721 253.188 62.716 253.188 63.8492ZM250.364 63.8224C250.364 63.18 250.284 62.5331 250.123 61.8818C249.962 61.2215 249.708 60.6326 249.36 60.1151C249.012 59.5887 248.562 59.1604 248.008 58.8302C247.455 58.5001 246.786 58.335 246.001 58.335C245.242 58.335 244.591 58.5001 244.047 58.8302C243.502 59.1604 243.056 59.5887 242.708 60.1151C242.36 60.6326 242.106 61.2215 241.945 61.8818C241.785 62.5331 241.705 63.18 241.705 63.8224C241.705 64.4649 241.789 65.1117 241.959 65.7631C242.137 66.4144 242.405 67.0033 242.762 67.5298C243.119 68.0473 243.565 68.4711 244.1 68.8012C244.645 69.1314 245.278 69.2964 246.001 69.2964C246.759 69.2964 247.411 69.1314 247.955 68.8012C248.508 68.4711 248.963 68.0473 249.32 67.5298C249.677 67.0033 249.94 66.4144 250.11 65.7631C250.279 65.1117 250.364 64.4649 250.364 63.8224ZM268.469 56.7691L263.209 70.8624L259.435 70.8088L254.737 57.2911L257.454 56.8762L261.456 68.373L265.712 56.3944L268.469 56.7691ZM277.058 69.1091C277.531 69.1091 278 69.0377 278.464 68.8949C278.928 68.7432 279.356 68.5291 279.749 68.2525C280.141 67.967 280.48 67.6145 280.766 67.1952C281.06 66.7758 281.274 66.2895 281.408 65.7363L283.991 66.2583C283.741 67.0703 283.389 67.8064 282.934 68.4666C282.479 69.1269 281.948 69.6935 281.341 70.1664C280.734 70.6393 280.065 71.0051 279.334 71.2639C278.611 71.5226 277.852 71.652 277.058 71.652C275.881 71.652 274.837 71.4736 273.927 71.1167C273.016 70.7598 272.249 70.2556 271.624 69.6043C271 68.9529 270.523 68.1677 270.192 67.2487C269.871 66.3297 269.711 65.3036 269.711 64.1704C269.711 63.0551 269.898 62.0156 270.273 61.052C270.656 60.0794 271.178 59.2362 271.839 58.5224C272.499 57.8086 273.275 57.2465 274.167 56.836C275.06 56.4256 276.023 56.2204 277.058 56.2204C277.986 56.2204 278.861 56.4033 279.682 56.7691C280.502 57.126 281.23 57.6257 281.863 58.2681C282.497 58.9016 283.019 59.6511 283.429 60.5166C283.84 61.3821 284.098 62.319 284.205 63.3272L272.615 65.0537C272.677 65.6873 272.834 66.2583 273.083 66.7669C273.333 67.2666 273.65 67.6904 274.034 68.0384C274.426 68.3863 274.877 68.654 275.385 68.8414C275.903 69.0198 276.461 69.1091 277.058 69.1091ZM280.752 61.6007L280.672 61.3464C280.333 60.4631 279.865 59.7716 279.267 59.2719C278.678 58.7722 277.942 58.5224 277.058 58.5224C276.684 58.5224 276.273 58.5893 275.827 58.7232C275.381 58.8481 274.948 59.0667 274.529 59.379C274.109 59.6913 273.73 60.1106 273.391 60.6371C273.061 61.1546 272.829 61.8015 272.695 62.5777L280.752 61.6007ZM296.837 62.8053C296.828 62.368 296.788 61.9888 296.716 61.6676C296.654 61.3464 296.569 61.0698 296.462 60.8378C296.364 60.6058 296.248 60.414 296.114 60.2623C295.989 60.1106 295.86 59.9857 295.726 59.8876C295.413 59.6645 295.061 59.5574 294.668 59.5663C294.419 59.602 294.151 59.7091 293.865 59.8876C293.589 60.0571 293.303 60.2802 293.009 60.5568C292.714 60.8244 292.415 61.1323 292.112 61.4802C291.818 61.8193 291.532 62.1717 291.255 62.5376C290.979 62.8945 290.716 63.2514 290.466 63.6083C290.216 63.9652 289.993 64.2909 289.797 64.5853C289.806 65.2545 289.819 65.9148 289.837 66.5661C289.855 67.2086 289.868 67.8108 289.877 68.373C289.895 68.9262 289.913 69.4303 289.93 69.8853C289.957 70.3315 289.984 70.6928 290.011 70.9694L287.133 71.3308C287.08 69.7961 287.031 68.4086 286.986 67.1684C286.941 65.9192 286.901 64.8039 286.866 63.8224C286.83 62.8409 286.799 61.9754 286.772 61.226C286.754 60.4765 286.736 59.8296 286.718 59.2853C286.683 58.0094 286.656 57.0636 286.638 56.4479L289.69 56.3944C289.698 56.9386 289.703 57.4963 289.703 58.0673C289.712 58.6295 289.721 59.147 289.73 59.6199C289.739 60.1731 289.743 60.7129 289.743 61.2393C290.002 60.8289 290.314 60.3783 290.68 59.8876C291.055 59.3968 291.474 58.9328 291.938 58.4956C292.411 58.0584 292.924 57.6792 293.477 57.358C294.039 57.0279 294.637 56.8226 295.271 56.7423C295.984 56.7067 296.636 56.8583 297.225 57.1974C297.475 57.3402 297.72 57.532 297.961 57.7729C298.211 58.0049 298.438 58.3083 298.643 58.683C298.858 59.0488 299.036 59.4905 299.179 60.008C299.322 60.5166 299.42 61.1189 299.473 61.8148L296.837 62.8053ZM36.2492 96.3025L34.0274 97.6542L34.0007 97.5739C33.7687 97.1189 33.4876 96.7129 33.1575 96.356C32.8273 95.9902 32.4571 95.6823 32.0466 95.4325C31.6362 95.1738 31.1945 94.9775 30.7216 94.8436C30.2576 94.7098 29.7714 94.6429 29.2628 94.6429C28.5311 94.6429 27.8441 94.7812 27.2016 95.0578C26.5681 95.3344 26.0105 95.7136 25.5287 96.1954C25.0558 96.6772 24.681 97.2438 24.4044 97.8951C24.1278 98.5376 23.9895 99.2246 23.9895 99.9563C23.9895 100.679 24.1278 101.362 24.4044 102.004C24.681 102.646 25.0558 103.209 25.5287 103.69C26.0105 104.172 26.5681 104.551 27.2016 104.828C27.8441 105.105 28.5311 105.243 29.2628 105.243C29.7357 105.243 30.1952 105.18 30.6413 105.056C31.0874 104.931 31.5068 104.757 31.8994 104.534C32.3009 104.302 32.6667 104.025 32.9969 103.704C33.327 103.374 33.6081 103.008 33.8401 102.606L33.8936 102.526L36.2224 103.851L36.1956 103.931C35.8477 104.511 35.4238 105.033 34.9242 105.497C34.4245 105.961 33.8713 106.358 33.2646 106.688C32.6667 107.027 32.0243 107.286 31.3373 107.465C30.6592 107.643 29.9677 107.732 29.2628 107.732C28.2545 107.732 27.2775 107.536 26.3317 107.143C25.3948 106.751 24.5561 106.207 23.8155 105.511C23.0839 104.815 22.495 103.994 22.0488 103.048C21.6116 102.102 21.393 101.072 21.393 99.9563C21.393 99.2871 21.4823 98.6313 21.6607 97.9888C21.8481 97.3375 22.1068 96.7218 22.437 96.1419C22.776 95.5619 23.182 95.0265 23.6549 94.5358C24.1367 94.045 24.6676 93.6257 25.2476 93.2777C25.8276 92.9208 26.4566 92.6442 27.1347 92.4479C27.8128 92.2427 28.5222 92.1401 29.2628 92.1401C30.039 92.1401 30.7751 92.2338 31.4711 92.4211C32.176 92.6085 32.8273 92.8806 33.4252 93.2375C34.023 93.5855 34.5583 94.0138 35.0312 94.5224C35.5041 95.031 35.9012 95.6065 36.2224 96.2489L36.2492 96.3025ZM49.2551 107.184L49.4425 105.296C48.3539 105.992 47.2832 106.497 46.2304 106.809C45.1864 107.121 44.2094 107.277 43.2993 107.277C42.6568 107.277 42.0323 107.193 41.4255 107.023C40.8277 106.862 40.2968 106.613 39.8328 106.273C39.3778 105.925 39.0075 105.488 38.722 104.962C38.4454 104.426 38.3071 103.797 38.3071 103.075C38.3071 102.352 38.4141 101.705 38.6283 101.134C38.8424 100.563 39.1369 100.059 39.5116 99.6217C39.8864 99.1845 40.328 98.8097 40.8366 98.4974C41.3452 98.1851 41.8895 97.9308 42.4695 97.7345C43.0584 97.5382 43.674 97.3955 44.3165 97.3063C44.9589 97.2081 45.5968 97.159 46.2304 97.159C46.8192 97.159 47.368 97.1813 47.8766 97.226C48.3852 97.2706 48.8358 97.3286 49.2283 97.3999C49.1124 96.9538 48.9696 96.5166 48.8001 96.0883C48.6305 95.6511 48.4119 95.263 48.1443 94.9239C47.8855 94.5759 47.5643 94.2949 47.1806 94.0807C46.7969 93.8666 46.3374 93.7595 45.8021 93.7595C45.4541 93.7595 45.057 93.8131 44.6109 93.9201C44.1648 94.0183 43.674 94.2012 43.1387 94.4689C42.6033 94.7365 42.0189 95.1068 41.3854 95.5797C40.7519 96.0437 40.0738 96.6415 39.351 97.3732L37.7316 95.4057C38.5881 94.6027 39.409 93.9469 40.1942 93.4383C40.9794 92.9297 41.7155 92.5327 42.4026 92.2471C43.0985 91.9527 43.7409 91.7519 44.3298 91.6449C44.9277 91.5378 45.463 91.4843 45.9359 91.4843C46.7568 91.4843 47.4884 91.627 48.1309 91.9125C48.7733 92.1891 49.3354 92.5728 49.8172 93.0636C50.308 93.5454 50.7184 94.1164 51.0486 94.7767C51.3876 95.428 51.6642 96.1329 51.8784 96.8914C52.0925 97.6409 52.2442 98.4216 52.3334 99.2335C52.4316 100.045 52.4806 100.853 52.4806 101.656C52.4806 102.513 52.4316 103.432 52.3334 104.413C52.2353 105.395 52.0836 106.465 51.8784 107.625L49.2551 107.184ZM49.6299 102.312C49.6477 101.866 49.6611 101.424 49.67 100.987C49.6789 100.55 49.6566 100.095 49.6031 99.6217C49.1659 99.4878 48.7064 99.3808 48.2246 99.3005C47.7427 99.2202 47.2609 99.18 46.7791 99.18C45.9761 99.18 45.1953 99.2737 44.4369 99.4611C43.6874 99.6484 43.0405 99.9206 42.4962 100.277C41.952 100.634 41.5415 101.072 41.2649 101.589C40.9972 102.107 40.9437 102.696 41.1043 103.356C41.2292 103.891 41.4701 104.266 41.827 104.48C42.1929 104.694 42.6301 104.801 43.1387 104.801C43.6562 104.801 44.2138 104.716 44.8117 104.547C45.4184 104.368 46.0162 104.154 46.6051 103.905C47.2029 103.646 47.765 103.374 48.2915 103.088C48.8179 102.803 49.264 102.544 49.6299 102.312ZM61.0967 106.996C60.4632 106.987 59.901 106.88 59.4103 106.675C58.9285 106.47 58.5002 106.207 58.1254 105.885C57.7596 105.555 57.4429 105.18 57.1752 104.761C56.9164 104.342 56.6978 103.918 56.5194 103.49C56.0911 102.472 55.8234 101.321 55.7163 100.037L56.0777 83.0658H58.8749C58.8303 84.654 58.7857 86.1128 58.7411 87.4423C58.7054 88.7629 58.6742 89.9674 58.6474 91.056C58.6206 92.1356 58.5939 93.1037 58.5671 93.9603C58.5493 94.8168 58.5314 95.5708 58.5136 96.2222C58.4779 97.7568 58.4511 98.9659 58.4333 99.8492C58.4511 100.679 58.5716 101.42 58.7946 102.071C58.8839 102.348 58.9999 102.62 59.1426 102.887C59.2943 103.155 59.4727 103.396 59.678 103.61C59.8921 103.824 60.1419 103.998 60.4275 104.132C60.7219 104.257 61.061 104.324 61.4446 104.333L61.0967 106.996ZM68.6687 106.996C68.0352 106.987 67.4731 106.88 66.9824 106.675C66.5006 106.47 66.0723 106.207 65.6975 105.885C65.3317 105.555 65.0149 105.18 64.7473 104.761C64.4885 104.342 64.2699 103.918 64.0914 103.49C63.6632 102.472 63.3955 101.321 63.2884 100.037L63.6498 83.0658H66.447C66.4024 84.654 66.3578 86.1128 66.3132 87.4423C66.2775 88.7629 66.2463 89.9674 66.2195 91.056C66.1927 92.1356 66.166 93.1037 66.1392 93.9603C66.1213 94.8168 66.1035 95.5708 66.0857 96.2222C66.05 97.7568 66.0232 98.9659 66.0053 99.8492C66.0232 100.679 66.1436 101.42 66.3667 102.071C66.4559 102.348 66.5719 102.62 66.7147 102.887C66.8664 103.155 67.0448 103.396 67.2501 103.61C67.4642 103.824 67.714 103.998 67.9996 104.132C68.294 104.257 68.6331 104.324 69.0167 104.333L68.6687 106.996ZM74.5678 88.4996C74.5678 88.7584 74.5143 89.0038 74.4072 89.2358C74.3091 89.4677 74.1708 89.6685 73.9923 89.838C73.8228 90.0076 73.622 90.1414 73.3901 90.2395C73.1581 90.3377 72.9082 90.3868 72.6406 90.3868C72.3818 90.3868 72.1364 90.3377 71.9044 90.2395C71.6814 90.1414 71.4806 90.0076 71.3022 89.838C71.1326 89.6685 70.9988 89.4677 70.9006 89.2358C70.8025 89.0038 70.7534 88.7584 70.7534 88.4996C70.7534 88.232 70.8025 87.9821 70.9006 87.7501C70.9988 87.5182 71.1326 87.3174 71.3022 87.1479C71.4806 86.9694 71.6814 86.8311 71.9044 86.733C72.1364 86.6259 72.3818 86.5724 72.6406 86.5724C72.9082 86.5724 73.1581 86.6259 73.3901 86.733C73.622 86.8311 73.8228 86.9694 73.9923 87.1479C74.1708 87.3174 74.3091 87.5182 74.4072 87.7501C74.5143 87.9821 74.5678 88.232 74.5678 88.4996ZM73.9388 93.2108C73.912 94.4867 73.8853 95.66 73.8585 96.7307C73.8406 97.7925 73.8228 98.7606 73.805 99.6351C73.7871 100.509 73.7693 101.295 73.7514 101.991C73.7425 102.678 73.7336 103.28 73.7246 103.797C73.6979 105.029 73.6845 105.997 73.6845 106.702H70.9408C70.9586 105.738 70.9809 104.592 71.0077 103.262C71.0256 102.12 71.0479 100.724 71.0746 99.0729C71.1103 97.4222 71.1416 95.5039 71.1683 93.3178L73.9388 93.2108ZM78.0444 107.331C77.9909 105.796 77.9418 104.409 77.8972 103.168C77.8526 101.919 77.8125 100.804 77.7768 99.8224C77.7411 98.8409 77.7098 97.9754 77.6831 97.226C77.6652 96.4765 77.6474 95.8296 77.6295 95.2853C77.5938 94.0094 77.5671 93.0636 77.5492 92.4479L80.6008 92.3944L80.6543 96.2489C80.9487 95.7403 81.2833 95.263 81.6581 94.8168C82.0328 94.3618 82.4388 93.9603 82.876 93.6123C83.3132 93.2643 83.7772 92.9833 84.268 92.7691C84.7676 92.555 85.2896 92.43 85.8339 92.3944C86.512 92.3497 87.1009 92.4077 87.6006 92.5683C88.1091 92.729 88.5419 92.952 88.8988 93.2375C89.2557 93.5231 89.5501 93.8621 89.7821 94.2547C90.0141 94.6384 90.197 95.0399 90.3309 95.4593C90.4647 95.8697 90.5584 96.2802 90.6119 96.6906C90.6744 97.101 90.7145 97.4758 90.7324 97.8148C90.7859 99.3495 90.7993 100.893 90.7725 102.446C90.7458 103.998 90.7145 105.609 90.6789 107.277L87.9352 107.184C88.0065 105.747 88.069 104.311 88.1225 102.874C88.185 101.437 88.1805 99.9875 88.1091 98.5242C88.1091 98.3636 88.0958 98.1584 88.069 97.9085C88.0511 97.6498 88.0021 97.3776 87.9218 97.0921C87.8504 96.8066 87.7478 96.5255 87.6139 96.2489C87.4801 95.9634 87.3061 95.718 87.092 95.5128C86.8778 95.2987 86.6146 95.1381 86.3023 95.031C85.9989 94.9239 85.642 94.9016 85.2316 94.9641C84.5267 95.0711 83.8084 95.5887 83.0768 96.5166C82.3541 97.4356 81.5733 98.7829 80.7346 100.559C80.7703 101.995 80.7971 103.142 80.8149 103.998C80.8417 104.846 80.864 105.488 80.8818 105.925C80.8997 106.443 80.9131 106.791 80.922 106.969L78.0444 107.331ZM108.637 91.511L108.557 106.889C108.548 107.469 108.472 108.045 108.329 108.616C108.186 109.196 107.972 109.753 107.687 110.289C107.41 110.833 107.062 111.342 106.643 111.814C106.232 112.296 105.755 112.72 105.211 113.086C104.675 113.461 104.073 113.764 103.404 113.996C102.735 114.237 102.003 114.389 101.209 114.451C100.129 114.487 99.112 114.375 98.1572 114.116C97.7468 114.009 97.3274 113.862 96.8992 113.675C96.4798 113.487 96.0738 113.246 95.6812 112.952C95.2886 112.667 94.9273 112.319 94.5971 111.908C94.267 111.507 93.9949 111.029 93.7807 110.476L96.3638 109.352C96.5333 109.735 96.7386 110.066 96.9795 110.342C97.2204 110.619 97.4791 110.851 97.7557 111.038C98.0323 111.226 98.3134 111.377 98.5989 111.493C98.8934 111.609 99.1789 111.694 99.4555 111.747C100.107 111.89 100.794 111.917 101.517 111.828C102.141 111.703 102.681 111.511 103.136 111.252C103.6 110.994 103.993 110.704 104.314 110.382C104.635 110.07 104.894 109.735 105.09 109.379C105.295 109.031 105.456 108.696 105.572 108.375C105.688 108.054 105.764 107.759 105.799 107.491C105.844 107.233 105.866 107.032 105.866 106.889V105.136C105.331 105.644 104.773 106.037 104.193 106.314C103.622 106.581 103.091 106.778 102.601 106.903C102.03 107.054 101.468 107.139 100.914 107.157C99.8793 107.157 98.9157 106.974 98.0234 106.608C97.1311 106.251 96.3549 105.738 95.6946 105.069C95.0343 104.391 94.5124 103.57 94.1287 102.606C93.7539 101.643 93.5666 100.559 93.5666 99.354C93.5666 98.1405 93.7762 97.0609 94.1956 96.1151C94.615 95.1604 95.1637 94.3573 95.8418 93.706C96.5289 93.0546 97.3007 92.5594 98.1572 92.2204C99.0227 91.8724 99.8927 91.6984 100.767 91.6984C101.374 91.7698 101.985 91.9036 102.601 92.0999C103.127 92.2694 103.694 92.5104 104.3 92.8226C104.907 93.1349 105.469 93.5588 105.987 94.0941L106.014 91.4307L108.637 91.511ZM100.914 104.587C101.503 104.587 102.074 104.484 102.627 104.279C103.181 104.074 103.68 103.789 104.126 103.423C104.582 103.048 104.965 102.606 105.277 102.098C105.59 101.58 105.804 101.014 105.92 100.398V98.6446C105.822 98.0111 105.612 97.4356 105.291 96.9181C104.97 96.3917 104.577 95.9411 104.113 95.5663C103.649 95.1916 103.132 94.9016 102.561 94.6964C101.998 94.4912 101.423 94.3886 100.834 94.3886C100.192 94.3886 99.5982 94.5224 99.054 94.7901C98.5097 95.0488 98.0413 95.4102 97.6487 95.8742C97.265 96.3382 96.9616 96.8869 96.7386 97.5204C96.5244 98.1539 96.4173 98.8365 96.4173 99.5681C96.4173 100.3 96.5289 100.973 96.7519 101.589C96.975 102.205 97.2828 102.736 97.6754 103.182C98.0769 103.619 98.5498 103.963 99.0941 104.212C99.6473 104.462 100.254 104.587 100.914 104.587Z" fill="white"/>
<rect x="20.4026" y="27.8351" width="290.877" height="101.011" stroke="#454545" stroke-width="0.805851"/>
<path d="M330.933 47.4877C330.933 36.6339 322.134 27.8351 311.28 27.8351V27.8351V56.2797H330.933V47.4877Z" fill="#454545" stroke="#454545" stroke-width="0.805851"/>
<rect width="19.6526" height="44.1214" transform="matrix(-1 0 0 1 330.933 56.2797)" fill="#454545" stroke="#454545" stroke-width="0.805851"/>
<path fill-rule="evenodd" clip-rule="evenodd" d="M330.576 112.94C330.81 111.727 330.933 110.474 330.933 109.193V100.401H311.28V128.846C316.039 128.846 320.403 127.154 323.803 124.339C327.196 126.599 332.635 128.748 339.207 127.553C337.397 126.777 330.415 122.122 330.674 112.813C330.643 112.856 330.61 112.899 330.576 112.94Z" fill="#454545"/>
<path d="M330.576 112.94L330.886 113.196L330.18 112.863L330.576 112.94ZM330.933 100.401V99.9982H331.336V100.401H330.933ZM311.28 100.401H310.877V99.9982H311.28V100.401ZM311.28 128.846V129.249H310.877V128.846H311.28ZM323.803 124.339L323.546 124.029L323.777 123.838L324.027 124.004L323.803 124.339ZM339.207 127.553L339.366 127.182L340.597 127.71L339.279 127.949L339.207 127.553ZM330.674 112.813L330.348 112.576L331.113 111.525L331.077 112.824L330.674 112.813ZM331.336 109.193C331.336 110.5 331.21 111.778 330.971 113.016L330.18 112.863C330.41 111.676 330.53 110.449 330.53 109.193H331.336ZM331.336 100.401V109.193H330.53V100.401H331.336ZM311.28 99.9982H330.933V100.804H311.28V99.9982ZM310.877 128.846V100.401H311.683V128.846H310.877ZM324.06 124.65C320.59 127.522 316.136 129.249 311.28 129.249V128.443C315.942 128.443 320.216 126.786 323.546 124.029L324.06 124.65ZM339.279 127.949C332.579 129.167 327.035 126.976 323.58 124.675L324.027 124.004C327.357 126.223 332.692 128.328 339.135 127.156L339.279 127.949ZM331.077 112.824C330.951 117.368 332.589 120.768 334.48 123.131C336.378 125.505 338.523 126.821 339.366 127.182L339.049 127.923C338.082 127.509 335.831 126.11 333.85 123.635C331.862 121.15 330.139 117.568 330.271 112.802L331.077 112.824ZM330.265 112.683C330.294 112.648 330.322 112.613 330.348 112.576L331 113.05C330.964 113.1 330.926 113.149 330.886 113.196L330.265 112.683Z" fill="#454545"/>
</svg>